<svg width="7" height="13" viewBox="0 0 7 13" fill="none" xmlns="http://www.w3.org/2000/svg">
<path d="M2.43401 9.61371C2.43401 9.61371 2.01401 11.0537 1.91401 11.7537C3.27351 11.9525 4.59717 12.3466 5.84401 12.9237C6.13401 13.0637 6.17401 12.8137 5.84401 12.5537C4.9136 11.7979 3.77814 11.3382 2.58401 11.2337C2.58401 11.0337 3.27401 9.02372 3.16401 8.99372C2.62392 8.96265 2.08212 9.0064 1.55401 9.12371C2.33401 6.12371 3.55401 3.20371 4.33401 0.123713C4.33401 0.013713 4.20401 -0.0462888 4.15401 0.0437112C2.7111 3.09782 1.57228 6.28652 0.75401 9.56371C0.62401 10.0037 2.13401 9.69371 2.43401 9.61371Z" fill="#263238"/>
</svg>
