<svg width="32" height="32" viewBox="0 0 32 32" fill="none" xmlns="http://www.w3.org/2000/svg">
<path d="M15.5863 31.97C24.1536 31.97 31.0987 25.0249 31.0987 16.4577C31.0987 7.89044 24.1536 0.945312 15.5863 0.945312C7.0191 0.945312 0.0739746 7.89044 0.0739746 16.4577C0.0739746 25.0249 7.0191 31.97 15.5863 31.97Z" fill="#FDFDFD"/>
<path d="M23.8908 14.2737C23.8908 13.2853 23.4982 12.3373 22.7993 11.6384C22.1003 10.9395 21.1524 10.5469 20.164 10.5469H10.6409C9.65247 10.5469 8.7045 10.9395 8.00558 11.6384C7.30667 12.3373 6.91406 13.2853 6.91406 14.2737V18.6582C6.91406 19.6466 7.30667 20.5946 8.00558 21.2935C8.7045 21.9924 9.65247 22.385 10.6409 22.385H20.164C21.1524 22.385 22.1003 21.9924 22.7993 21.2935C23.4982 20.5946 23.8908 19.6466 23.8908 18.6582V14.2737ZM18.2874 16.8167L14.0169 18.93C13.8503 19.0265 13.2803 18.93 13.2803 18.7108V14.3701C13.2803 14.1772 13.8591 14.0545 14.0257 14.1509L18.112 16.3783C18.2874 16.4484 18.4628 16.6939 18.2874 16.7904V16.8167Z" fill="#FF5A4E"/>
</svg>
