<svg width="32" height="32" viewBox="0 0 32 32" fill="none" xmlns="http://www.w3.org/2000/svg">
<path d="M15.5617 31.97C24.1289 31.97 31.074 25.0249 31.074 16.4577C31.074 7.89043 24.1289 0.945312 15.5617 0.945312C6.99444 0.945312 0.0493164 7.89043 0.0493164 16.4577C0.0493164 25.0249 6.99444 31.97 15.5617 31.97Z" fill="#FDFDFD"/>
<path d="M24.1289 11.1346C23.5689 11.3759 22.979 11.5411 22.3751 11.6256C22.6557 11.6256 23.0591 11.0819 23.252 10.8803C23.5056 10.5744 23.699 10.2233 23.822 9.84551C23.822 9.84551 23.822 9.77536 23.822 9.75782C23.8074 9.74936 23.7907 9.7449 23.7738 9.7449C23.7568 9.7449 23.7402 9.74936 23.7255 9.75782C23.0845 10.097 22.4042 10.3562 21.6999 10.5295C21.6789 10.5427 21.6546 10.5498 21.6298 10.5498C21.605 10.5498 21.5806 10.5427 21.5596 10.5295C21.5057 10.464 21.4471 10.4024 21.3842 10.3453C21.0927 10.0928 20.7607 9.89116 20.4021 9.74905C19.9253 9.55085 19.4089 9.46678 18.8939 9.50352C18.3942 9.53993 17.9071 9.67766 17.4624 9.90831C17.0177 10.139 16.6246 10.4577 16.307 10.8452C15.9788 11.2504 15.7452 11.7237 15.623 12.2307C15.5266 12.7111 15.5266 13.2059 15.623 13.6863C15.623 13.7653 15.623 13.774 15.5528 13.7653C12.8748 13.4998 10.3907 12.2499 8.5815 10.2577C8.50258 10.1612 8.45872 10.1612 8.39734 10.2577C8.02867 10.9249 7.88742 11.6942 7.99501 12.4489C8.10261 13.2036 8.45317 13.9028 8.99362 14.4405L9.42329 14.8175C8.95649 14.7765 8.5015 14.6486 8.08166 14.4405C7.99397 14.3879 7.95888 14.4405 7.95011 14.5106C7.93721 14.6418 7.93721 14.774 7.95011 14.9052C8.03309 15.5334 8.2814 16.1282 8.66965 16.629C9.05791 17.1297 9.57221 17.5183 10.1599 17.7551C10.3026 17.8203 10.4528 17.8674 10.6071 17.8955C10.1685 17.9644 9.72169 17.9644 9.28301 17.8955C9.18655 17.8955 9.15149 17.8955 9.18657 18.0182C9.41178 18.6098 9.78465 19.1339 10.2697 19.5407C10.7547 19.9474 11.3358 20.2233 11.9575 20.342C12.0843 20.3504 12.2104 20.368 12.3346 20.3946C11.7965 20.8825 11.1457 21.229 10.4405 21.4031C9.51925 21.7305 8.53833 21.8561 7.56427 21.7713C7.40643 21.7713 7.38011 21.7713 7.33627 21.7713C7.29242 21.7713 7.33631 21.8327 7.38016 21.8766C7.57307 21.9994 7.77475 22.1133 7.97644 22.2273C8.58676 22.5533 9.23067 22.8121 9.89685 22.999C11.6065 23.5094 13.4196 23.5651 15.1573 23.1606C16.8951 22.7562 18.4973 21.9056 19.8058 20.6928C20.747 19.6707 21.4746 18.4709 21.9459 17.1639C22.4173 15.8568 22.6228 14.4688 22.5505 13.0813C22.5505 12.976 22.682 12.9147 22.761 12.8533C23.2758 12.4525 23.7305 11.98 24.1114 11.4502C24.1701 11.372 24.201 11.2763 24.1991 11.1784C24.1991 11.1784 24.1991 11.1082 24.1289 11.1346Z" fill="#FF5A4E"/>
</svg>
