<svg width="32" height="32" viewBox="0 0 32 32" fill="none" xmlns="http://www.w3.org/2000/svg">
<path d="M31.0247 16.4519C31.0236 13.4875 30.1731 10.5855 28.5739 8.0894C26.9748 5.59334 24.6939 3.60777 22.0013 2.36773C19.3087 1.1277 16.3172 0.685138 13.3809 1.09245C10.4447 1.49976 7.68656 2.73988 5.43318 4.66599C3.1798 6.59211 1.52554 9.12356 0.666162 11.9607C-0.193215 14.7978 -0.221709 17.8217 0.584113 20.6745C1.38993 23.5272 2.99632 26.0894 5.21305 28.0576C7.42977 30.0258 10.164 31.3176 13.0921 31.7801V20.9416H9.17237V16.4519H13.1184V13.032C13.1184 9.14729 15.4334 6.99888 18.9761 6.99888C20.1513 7.01399 21.3237 7.11658 22.4837 7.3058V11.1203H20.5282C20.1908 11.0669 19.8456 11.0911 19.5189 11.1913C19.1923 11.2915 18.8928 11.4648 18.6434 11.6983C18.3939 11.9317 18.2009 12.219 18.0793 12.5382C17.9576 12.8575 17.9105 13.2003 17.9414 13.5406V16.4519H22.2469L21.563 20.9416H17.9414V31.7801C21.5894 31.1999 24.9109 29.3377 27.3091 26.5281C29.7072 23.7185 31.0246 20.1458 31.0247 16.4519Z" fill="#FDFDFD"/>
<path d="M21.5544 20.9408L22.2384 16.451H17.9416V13.5397C17.9123 13.2046 17.9588 12.8671 18.0776 12.5523C18.1963 12.2375 18.3842 11.9534 18.6275 11.721C18.8709 11.4887 19.1633 11.314 19.4832 11.2098C19.8031 11.1057 20.1424 11.0748 20.4759 11.1195H22.4313V7.30496C21.2714 7.11574 20.0989 7.01315 18.9237 6.99805C15.4161 6.99805 13.066 9.14645 13.066 13.0311V16.451H9.17261V20.9408H13.1187V31.7792C14.7228 32.0248 16.355 32.0248 17.9592 31.7792V20.9408H21.5544Z" fill="#FF5A4E"/>
</svg>
