<svg width="32" height="32" viewBox="0 0 32 32" fill="none" xmlns="http://www.w3.org/2000/svg">
<path d="M15.537 31.97C24.1043 31.97 31.0494 25.0249 31.0494 16.4577C31.0494 7.89044 24.1043 0.945312 15.537 0.945312C6.96978 0.945312 0.0246582 7.89044 0.0246582 16.4577C0.0246582 25.0249 6.96978 31.97 15.537 31.97Z" fill="#FDFDFD"/>
<path d="M15.0951 14.0561C13.5181 14.0561 12.2312 15.343 12.2312 16.92C12.2312 18.4969 13.5181 19.7838 15.0951 19.7838C16.672 19.7838 17.9589 18.4969 17.9589 16.92C17.9589 15.343 16.672 14.0561 15.0951 14.0561ZM23.6845 16.92C23.6845 15.734 23.6953 14.5588 23.6287 13.3751C23.5621 12.0001 23.2484 10.7797 22.2429 9.77427C21.2353 8.76665 20.0171 8.45513 18.6421 8.38853C17.4562 8.32193 16.281 8.33267 15.0972 8.33267C13.9113 8.33267 12.7361 8.32193 11.5523 8.38853C10.1773 8.45513 8.95699 8.7688 7.95152 9.77427C6.9439 10.7819 6.63238 12.0001 6.56578 13.3751C6.49917 14.561 6.50992 15.7362 6.50992 16.92C6.50992 18.1038 6.49917 19.2811 6.56578 20.4649C6.63238 21.8399 6.94605 23.0602 7.95152 24.0657C8.95914 25.0733 10.1773 25.3848 11.5523 25.4514C12.7382 25.518 13.9134 25.5073 15.0972 25.5073C16.2832 25.5073 17.4584 25.518 18.6421 25.4514C20.0171 25.3848 21.2375 25.0711 22.2429 24.0657C23.2505 23.0581 23.5621 21.8399 23.6287 20.4649C23.6974 19.2811 23.6845 18.1059 23.6845 16.92ZM15.0951 21.3264C12.6566 21.3264 10.6886 19.3584 10.6886 16.92C10.6886 14.4815 12.6566 12.5135 15.0951 12.5135C17.5335 12.5135 19.5015 14.4815 19.5015 16.92C19.5015 19.3584 17.5335 21.3264 15.0951 21.3264ZM19.682 13.3622C19.1127 13.3622 18.6529 12.9024 18.6529 12.3331C18.6529 11.7637 19.1127 11.304 19.682 11.304C20.2513 11.304 20.7111 11.7637 20.7111 12.3331C20.7113 12.4683 20.6848 12.6021 20.6331 12.7271C20.5814 12.852 20.5056 12.9655 20.41 13.0611C20.3145 13.1567 20.2009 13.2325 20.076 13.2842C19.9511 13.3358 19.8172 13.3623 19.682 13.3622Z" fill="#FF5A4E"/>
</svg>
